<svg width="108" height="23" viewBox="0 0 108 23" fill="none" xmlns="http://www.w3.org/2000/svg">
<path d="M16.5859 4.83478H6.05799C5.83408 4.82996 5.61273 4.88355 5.41539 4.99035C5.21805 5.09716 5.0514 5.25355 4.9316 5.44439C4.65157 5.8672 4.50749 6.36674 4.51896 6.87507C4.50154 7.3609 4.63743 7.83977 4.90706 8.24276C5.0343 8.42684 5.20588 8.57525 5.40566 8.67402C5.60544 8.7728 5.82686 8.81869 6.04907 8.80738H12.2677C13.9435 8.80738 15.2662 9.51597 16.2357 10.9331C17.1115 12.2019 17.5494 13.7705 17.5494 15.6391C17.5494 17.5077 17.1093 19.0763 16.229 20.345C15.258 21.7607 13.9375 22.4685 12.2677 22.4685H0.972491V17.7064H11.5494C11.7675 17.7092 11.9821 17.652 12.1704 17.5411C12.3586 17.4301 12.5133 17.2695 12.6178 17.0765C12.8813 16.6374 13.0159 16.132 13.0059 15.6188C13.0218 15.1256 12.8921 14.6386 12.6335 14.2197C12.52 14.0349 12.3597 13.8839 12.1692 13.7823C11.9787 13.6807 11.7648 13.6321 11.5494 13.6415H5.32862C4.54119 13.6612 3.76174 13.4785 3.06366 13.1105C2.36557 12.7426 1.77182 12.2015 1.33829 11.5383C0.446097 10.283 0 8.7294 0 6.87732C0 5.04923 0.446097 3.50083 1.33829 2.23211C2.32565 0.816433 3.65576 0.109343 5.32862 0.110842H16.5859V4.83478Z" fill="#1A63A6"/>
<path d="M37.9361 22.4683H33.2521L28.0863 5.25517C28.0821 5.2146 28.07 5.17527 28.0507 5.13946C28.0313 5.10364 28.0051 5.07206 27.9736 5.04653C27.9421 5.021 27.9058 5.00204 27.867 4.99075C27.8281 4.97945 27.7874 4.97605 27.7472 4.98073C27.6598 4.97893 27.574 5.00431 27.5014 5.0534C27.4288 5.1025 27.3729 5.17294 27.3413 5.25517L22.287 22.4683H17.5428C17.8119 21.4065 18.3919 19.2942 19.2826 16.1315C20.1733 12.9687 21.0402 9.97835 21.8833 7.16049C22.8216 4.02319 23.3941 2.27759 23.6008 1.92367C24.0089 1.28318 24.6022 0.784559 25.3004 0.495239C26.0675 0.160282 26.8958 -0.0083262 27.7316 0.000351057C28.5639 -0.00876868 29.3887 0.159891 30.1517 0.495239C30.8473 0.78598 31.4381 1.28444 31.8446 1.92367C32.0811 2.28958 32.664 4.02244 33.5933 7.12224C34.1658 9.02831 35.0194 12.0194 36.1539 16.0955C36.8454 18.5744 37.4394 20.6987 37.9361 22.4683Z" fill="#1A63A6"/>
<path d="M57.4706 0.256836C57.0498 1.88547 56.4714 4.01424 55.7353 6.64315C54.8193 9.9424 53.9561 12.9545 53.1457 15.6794C52.2134 18.8046 51.6357 20.5555 51.4127 20.9319C50.9988 21.5711 50.4022 22.0685 49.7019 22.3581C48.9385 22.6934 48.1152 22.8679 47.2825 22.871C46.4499 22.8741 45.6253 22.7057 44.8595 22.3761C44.1608 22.0826 43.5695 21.5781 43.1666 20.9319C42.9301 20.5765 42.3472 18.8324 41.4179 15.6996C40.8558 13.807 40.0022 10.7942 38.8573 6.66114C37.9071 3.23291 37.3123 1.09815 37.0729 0.256836H41.7703L46.9205 17.6162C46.9249 17.6568 46.9373 17.6962 46.9568 17.732C46.9764 17.7679 47.0028 17.7994 47.0345 17.8249C47.0662 17.8504 47.1026 17.8694 47.1416 17.8806C47.1806 17.8919 47.2214 17.8953 47.2617 17.8906C47.3508 17.8923 47.4383 17.8671 47.5131 17.8182C47.5878 17.7693 47.6463 17.6989 47.6811 17.6162L52.7242 0.256836H57.4706Z" fill="#1A63A6"/>
<path d="M74.0074 22.4685H62.7502C61.0669 22.4685 59.7331 21.7539 58.7487 20.3248C57.8565 19.0456 57.4141 17.4709 57.4216 15.6008C57.4216 13.9167 57.7933 12.4583 58.5368 11.2256C57.7713 9.91472 57.385 8.41391 57.4216 6.89305C57.4216 5.06496 57.864 3.51131 58.7487 2.2321C59.181 1.56373 59.7756 1.01797 60.4759 0.646685C61.1763 0.275402 61.9592 0.0909386 62.7502 0.110829H74.0074V4.83476H63.4796C63.2556 4.82973 63.0342 4.88322 62.8368 4.99005C62.6394 5.09687 62.4728 5.25339 62.3532 5.44438C62.0731 5.86719 61.9291 6.36673 61.9405 6.87505C61.9257 7.36187 62.0648 7.84083 62.3376 8.24274C62.4646 8.42698 62.6362 8.57551 62.836 8.6743C63.0358 8.77309 63.2573 8.81889 63.4796 8.80737H74.0074V13.6415H62.8796C62.5678 13.8089 62.324 14.0811 62.1903 14.4109C62.0207 14.7903 61.9355 15.2026 61.9405 15.6188C61.9274 16.1244 62.0658 16.6222 62.3376 17.0473C62.4583 17.2406 62.6274 17.3983 62.828 17.5045C63.0285 17.6108 63.2532 17.6618 63.4796 17.6524H74.0074V22.4685Z" fill="#1A63A6"/>
<path d="M83.2818 0.128906H96.5264L96.0803 3.37042C96.0803 3.37042 91.8758 6.05407 89.6119 11.869C89.1658 12.0647 87.4327 12.96 87.4327 12.96L85.6483 14.0488L84.3368 15.0003C84.3368 15.0003 85.4097 11.5338 88.4231 7.56348C88.9896 6.88863 91.5836 3.96429 91.5836 3.96429H82.8357L83.2818 0.128906Z" fill="#1A63A6"/>
<path d="M83.1748 0.0478516H96.4171L95.971 3.28937C95.971 3.28937 91.7644 5.97301 89.5026 11.788C89.0565 11.9837 87.3235 12.879 87.3235 12.879L85.5391 13.97L84.2276 14.9192C84.2276 14.9192 85.3004 11.4528 88.3138 7.48242C88.8803 6.80758 91.4744 3.88324 91.4744 3.88324H82.7264L83.1748 0.0478516Z" fill="#1A63A6"/>
<path d="M97.1041 3.7547L98.1636 3.48701C98.1636 3.48701 100.883 2.60296 101.197 0.378208C101.826 0.351214 104.344 0.378208 104.344 0.378208L103.006 9.46616C103.006 9.46616 99.8587 9.22546 99.058 9.49315C99.2565 8.20644 99.3948 7.19867 99.3948 7.19867H96.6758L97.1041 3.7547Z" fill="#1A63A6"/>
<path d="M97.0639 3.64218L98.1234 3.37449C98.1234 3.37449 100.84 2.49044 101.155 0.263439C101.786 0.238695 104.302 0.263439 104.302 0.263439L102.964 9.35364C102.964 9.35364 99.8164 9.11294 99.0134 9.38063C99.2141 8.09392 99.3569 7.0749 99.3569 7.0749H96.6357L97.0639 3.64218Z" fill="#1A63A6"/>
<path d="M98.7792 11.9544L97.8357 18.9278L101.726 18.8738L102.928 11.248C102.928 11.248 100.497 11.4438 98.7792 11.9544Z" fill="#1A63A6"/>
<path d="M79.722 22.4682H82.9428C82.9428 22.4682 85.8424 18.3314 87.9145 16.8017C88.7108 16.0931 93.2053 12.5277 96.6647 11.6594C97.7376 11.3242 102.464 9.83277 108 11.0992C108 11.0992 105.852 10.0937 98.8908 10.6493C98.3755 10.8001 92.2908 11.6571 87.1205 15.4947C86.1257 16.2438 81.5131 19.7958 79.722 22.4682Z" fill="#1A63A6"/>
<path d="M79.722 22.4682H82.9428C82.9428 22.4682 85.8424 18.3314 87.9145 16.8017C88.7108 16.0931 93.2053 12.5277 96.6647 11.6594C97.7376 11.3242 102.464 9.83277 108 11.0992C108 11.0992 105.852 10.0937 98.8908 10.6493C98.3755 10.8001 92.2908 11.6571 87.1205 15.4947C86.1257 16.2438 81.5131 19.7958 79.722 22.4682Z" fill="#1A63A6"/>
<path d="M79.722 22.4682H82.9428C82.9428 22.4682 85.8424 18.3314 87.9145 16.8017C88.7108 16.0931 93.2053 12.5277 96.6647 11.6594C97.7376 11.3242 102.464 9.83277 108 11.0992C108 11.0992 105.852 10.0937 98.8908 10.6493C98.3755 10.8001 92.2908 11.6571 87.1205 15.4947C86.1257 16.2438 81.5131 19.7958 79.722 22.4682Z" fill="#1A63A6"/>
<path d="M98.719 11.8284L97.7733 18.8018L101.665 18.7478L102.865 11.1333C102.865 11.1333 100.434 11.32 98.719 11.8284Z" fill="#1A63A6"/>
</svg>
